<svg width="28" height="28" viewBox="0 0 28 28" fill="none" xmlns="http://www.w3.org/2000/svg">
<path d="M17.1044 5.97891C18.3202 6.21611 19.4375 6.8107 20.3134 7.68659C21.1893 8.56248 21.7839 9.67981 22.0211 10.8956M17.1044 1C19.6303 1.28061 21.9857 2.41174 23.7839 4.20767C25.5821 6.0036 26.7162 8.35759 27 10.8831M25.7553 20.816V24.5502C25.7567 24.8969 25.6857 25.24 25.5468 25.5576C25.4079 25.8753 25.2042 26.1604 24.9488 26.3947C24.6933 26.6291 24.3918 26.8075 24.0634 26.9186C23.735 27.0296 23.387 27.0709 23.0418 27.0397C19.2115 26.6235 15.5323 25.3147 12.2998 23.2184C9.2923 21.3073 6.74249 18.7575 4.83141 15.75C2.7278 12.5028 1.41868 8.80567 1.0101 4.95823C0.978998 4.61402 1.01991 4.26711 1.13022 3.93958C1.24053 3.61205 1.41784 3.31107 1.65085 3.05582C1.88385 2.80056 2.16746 2.59662 2.4836 2.45698C2.79974 2.31734 3.1415 2.24505 3.48711 2.24473H7.22129C7.82536 2.23878 8.41099 2.45269 8.86901 2.84659C9.32703 3.24049 9.6262 3.7875 9.71074 4.38566C9.86835 5.58068 10.1607 6.75403 10.5821 7.88334C10.7495 8.32886 10.7858 8.81304 10.6865 9.27853C10.5872 9.74401 10.3566 10.1713 10.0219 10.5097L8.44112 12.0905C10.2131 15.2067 12.7933 17.7869 15.9095 19.5589L17.4903 17.9781C17.8287 17.6434 18.256 17.4128 18.7215 17.3135C19.187 17.2142 19.6711 17.2505 20.1167 17.4179C21.246 17.8393 22.4193 18.1316 23.6143 18.2893C24.219 18.3746 24.7712 18.6791 25.1659 19.145C25.5607 19.6109 25.7704 20.2056 25.7553 20.816Z" stroke="white" stroke-linecap="round" stroke-linejoin="round"/>
</svg>
