<svg width="460" height="180" viewBox="0 0 460 180" fill="none" xmlns="http://www.w3.org/2000/svg">
<path d="M66.4273 78.2064L19.2949 125.255C38.5922 137.221 59.2539 127.322 67.1726 120.877L95.7575 92.3427C99.2716 88.8349 104.087 85.5851 108.693 87.4388C111.324 88.4974 112.807 90.5387 113.56 92.8074C115.07 97.3557 112.138 101.894 108.747 105.28L67.9036 146.05L72.2893 150.428L89.4668 133.281L93.4871 137.294L81.7918 148.968L86.9085 154.076L110.665 130.362L114.685 134.375L83.6192 165.386L88.3704 169.764L113.954 143.861L138.075 117.593C153.279 96.2873 140.999 74.9085 132.959 66.8823C122.181 55.9552 109.672 54.3479 99.1639 56.2741C85.9774 58.6911 75.9424 68.7082 66.4534 78.1803L66.4273 78.2064Z" fill="url(#paint0_linear_483_6503)"/>
<path d="M80.6953 63.9629L19.2949 125.254C38.5922 137.22 59.2108 127.327 67.1295 120.882L95.7596 92.3339C99.2725 88.8311 104.083 85.587 108.687 87.4353C111.321 88.4931 112.807 90.5359 113.56 92.8066C115.07 97.3549 112.138 101.893 108.747 105.279L67.9036 146.049L72.2893 150.427L89.4668 133.28L93.4871 137.293L81.7918 148.968L86.9085 154.075L110.665 130.361L114.685 134.375L83.6192 165.385L88.3704 169.763L113.954 143.86L138.075 117.592C153.279 96.2865 140.999 74.9077 132.959 66.8815C114.246 47.9105 90.4125 54.5757 80.6953 63.9629Z" fill="url(#paint1_linear_483_6503)"/>
<path d="M88.3691 169.763L83.6179 165.385L114.684 134.374L110.663 130.361L86.9072 154.075L81.7905 148.968L93.4859 137.293L89.4656 133.28L72.2881 150.427L67.9023 146.049L108.745 105.279C112.137 101.893 114.93 97.3417 113.322 92.8272C111.853 88.7052 108.259 85.3016 101.158 87.3342C102.344 86.5499 103.621 85.7991 104.968 85.0985C111.476 81.6341 117.647 80.1554 123.122 80.1729C128.913 80.0602 134.497 81.5547 138.796 85.5062C142.276 88.4222 144.572 92.3246 145.293 96.6776C145.173 103.322 143.163 110.461 138.074 117.592L113.953 143.86L88.3691 169.763Z" fill="url(#paint2_linear_483_6503)"/>
<path d="M88.3691 169.763L83.6179 165.385L114.684 134.374L110.663 130.361L86.9072 154.075L81.7905 148.968L93.4859 137.293L89.4656 133.28L72.2881 150.427L67.9023 146.049L108.745 105.279C112.137 101.893 114.93 97.3417 113.322 92.8272C111.853 88.7052 108.259 85.3016 101.158 87.3342C102.344 86.5499 103.621 85.7991 104.968 85.0985C111.476 81.6341 117.647 80.1554 123.122 80.1729C128.913 80.0602 134.497 81.5547 138.796 85.5062C142.276 88.4222 144.572 92.3246 145.293 96.6776C145.173 103.322 143.163 110.461 138.074 117.592L113.953 143.86L88.3691 169.763Z" fill="url(#paint3_linear_483_6503)"/>
<path d="M84.878 103.254L73.1385 114.973C55.2879 126.812 35.2475 121.39 27.4221 117.183L63.127 81.542L84.878 103.254Z" fill="url(#paint4_linear_483_6503)"/>
<path d="M84.8858 103.256L73.1463 114.975C55.2957 126.814 35.2553 121.392 27.4299 117.185L63.1348 81.5439L84.8858 103.256Z" fill="url(#paint5_linear_483_6503)"/>
<path d="M97.286 128.667L100.702 129.641L98.2561 132.083L94.8404 131.108L97.286 128.667Z" fill="#0274F9"/>
<path d="M97.2888 128.667L96.3123 125.258L93.8666 127.699L94.8431 131.109L97.2888 128.667Z" fill="#00B3FE"/>
<path d="M99.7247 126.236L100.704 129.641L97.2898 128.666L96.3111 125.256L99.7247 126.236Z" fill="#01F5FF"/>
<path d="M118.489 125.748L121.905 126.722L119.459 129.164L116.044 128.189L118.489 125.748Z" fill="#0274F9"/>
<path d="M118.494 125.75L117.517 122.34L115.072 124.781L116.048 128.191L118.494 125.75Z" fill="#00B3FE"/>
<path d="M120.93 123.317L121.91 126.722L118.495 125.747L117.516 122.337L120.93 123.317Z" fill="#01F5FF"/>
<path d="M72.1961 22.5833L88.8241 27.1889L76.7785 39.2131L60.1505 34.6074L72.1961 22.5833Z" fill="#0274F9"/>
<path d="M72.194 22.5808L67.5801 5.98242L55.5345 18.0066L60.1484 34.6049L72.194 22.5808Z" fill="#00B3FE"/>
<path d="M84.1962 10.6089L88.8255 27.187L72.2034 22.5804L67.5791 5.97856L84.1962 10.6089Z" fill="#01F5FF"/>
<path d="M62.2003 155.665L65.6161 156.639L63.1704 159.081L59.7546 158.106L62.2003 155.665Z" fill="#0274F9"/>
<path d="M62.2049 155.666L61.2284 152.256L58.7827 154.697L59.7592 158.107L62.2049 155.666Z" fill="#00B3FE"/>
<path d="M64.6409 153.234L65.6205 156.639L62.206 155.664L61.2273 152.254L64.6409 153.234Z" fill="#01F5FF"/>
<path d="M76.8233 158.581L80.2391 159.555L77.7934 161.997L74.3776 161.022L76.8233 158.581Z" fill="#0274F9"/>
<path d="M76.826 158.582L75.8495 155.172L73.4038 157.613L74.3803 161.023L76.826 158.582Z" fill="#00B3FE"/>
<path d="M79.262 156.15L80.2416 159.555L76.827 158.58L75.8484 155.17L79.262 156.15Z" fill="#01F5FF"/>
<path d="M79.7549 173.908L83.1707 174.883L80.725 177.324L77.3092 176.349L79.7549 173.908Z" fill="#0274F9"/>
<path d="M79.7576 173.909L78.7811 170.499L76.3354 172.94L77.3119 176.35L79.7576 173.909Z" fill="#00B3FE"/>
<path d="M82.1936 171.477L83.1732 174.882L79.7586 173.907L78.78 170.497L82.1936 171.477Z" fill="#01F5FF"/>
<path d="M68.7921 166.609L72.2079 167.584L69.7622 170.025L66.3464 169.05L68.7921 166.609Z" fill="#0274F9"/>
<path d="M68.7908 166.61L67.8143 163.2L65.3687 165.642L66.3451 169.051L68.7908 166.61Z" fill="#00B3FE"/>
<path d="M71.2269 164.178L72.2064 167.584L68.7919 166.609L67.8133 163.198L71.2269 164.178Z" fill="#01F5FF"/>
<path d="M60.0108 175.365L63.4266 176.34L60.9809 178.781L57.5651 177.806L60.0108 175.365Z" fill="#0274F9"/>
<path d="M60.0136 175.366L59.0371 171.956L56.5914 174.397L57.5679 177.807L60.0136 175.366Z" fill="#00B3FE"/>
<path d="M62.4495 172.934L63.4291 176.339L60.0145 175.365L59.0359 171.954L62.4495 172.934Z" fill="#01F5FF"/>
<path d="M62.3063 53.6268L57.9206 36.8447L0.54415 87.1909C-1.28284 95.9467 2.85512 107.135 4.92617 110.905L62.3063 53.6268Z" fill="#0274F9"/>
<path d="M0.176095 94.1236L57.9222 36.8457L41.1099 32.4678L12.6029 61.2891C1.27275 71.5043 -0.676689 89.016 0.176095 94.1236Z" fill="#00B3FE"/>
<path d="M57.9233 36.8457L41.1113 32.4678L45.4971 48.885L62.3091 53.6277L57.9233 36.8457Z" fill="#01F5FF"/>
<path d="M12.6084 102.88C-0.548789 89.7466 4.44609 72.5997 8.58818 65.668C-4.86136 86.682 0.547614 104.583 4.93329 110.907L12.6084 102.88Z" fill="#28C7FF"/>
<path d="M219.404 55.8449C219.268 55.6635 218.791 55.3233 217.975 54.8243C217.158 54.3254 216.138 53.8038 214.913 53.2595C213.688 52.7152 212.35 52.2389 210.899 51.8307C209.447 51.4224 207.996 51.2183 206.544 51.2183C202.553 51.2183 200.557 52.5564 200.557 55.2326C200.557 56.049 200.761 56.7294 201.169 57.2737C201.623 57.818 202.258 58.317 203.075 58.7706C203.936 59.1788 205.002 59.5643 206.272 59.9272C207.542 60.2901 209.017 60.6983 210.695 61.1519C213.008 61.7869 215.095 62.49 216.954 63.2611C218.814 63.9868 220.379 64.9167 221.649 66.0506C222.964 67.1392 223.962 68.4773 224.643 70.0649C225.368 71.6524 225.731 73.5575 225.731 75.7801C225.731 78.5016 225.21 80.8149 224.166 82.7199C223.168 84.5796 221.83 86.0992 220.152 87.2785C218.474 88.4124 216.546 89.2516 214.369 89.7959C212.192 90.2948 209.946 90.5443 207.633 90.5443C205.864 90.5443 204.05 90.4082 202.19 90.1361C200.33 89.8639 198.516 89.4784 196.747 88.9794C194.978 88.4351 193.254 87.8001 191.576 87.0744C189.943 86.3486 188.424 85.5095 187.018 84.557L191.916 74.8275C192.098 75.0543 192.687 75.4852 193.685 76.1202C194.683 76.7553 195.908 77.3903 197.359 78.0253C198.856 78.6603 200.512 79.2273 202.326 79.7263C204.14 80.2252 205.977 80.4747 207.837 80.4747C211.783 80.4747 213.757 79.2727 213.757 76.8687C213.757 75.9615 213.462 75.2131 212.872 74.6234C212.282 74.0337 211.466 73.5121 210.423 73.0585C209.379 72.5596 208.132 72.106 206.681 71.6978C205.274 71.2895 203.732 70.836 202.054 70.337C199.831 69.6566 197.904 68.9309 196.271 68.1598C194.638 67.3433 193.277 66.4135 192.188 65.3702C191.145 64.327 190.351 63.125 189.807 61.7642C189.308 60.4035 189.059 58.8159 189.059 57.0016C189.059 54.4615 189.535 52.2162 190.488 50.2658C191.44 48.3154 192.733 46.6825 194.366 45.3671C195.999 44.0063 197.881 42.9857 200.013 42.3054C202.19 41.625 204.481 41.2848 206.885 41.2848C208.563 41.2848 210.219 41.4435 211.851 41.761C213.484 42.0786 215.049 42.4868 216.546 42.9857C218.043 43.4847 219.426 44.0517 220.696 44.6867C222.012 45.3217 223.214 45.9567 224.302 46.5917L219.404 55.8449ZM256.432 80.4747C258.337 80.4747 259.948 80.0891 261.263 79.318C262.578 78.5016 263.644 77.4356 264.461 76.1202C265.277 74.8048 265.844 73.308 266.162 71.6297C266.525 69.9061 266.706 68.1598 266.706 66.3908V41.693H277.864V66.3908C277.864 69.7474 277.433 72.8771 276.572 75.7801C275.755 78.683 274.462 81.2231 272.693 83.4003C270.97 85.5775 268.747 87.3012 266.026 88.5712C263.349 89.7959 260.152 90.4082 256.432 90.4082C252.577 90.4082 249.288 89.7505 246.567 88.4351C243.845 87.1197 241.623 85.3734 239.899 83.1962C238.221 80.9736 236.973 78.4109 236.157 75.5079C235.386 72.6049 235 69.5659 235 66.3908V41.693H246.159V66.3908C246.159 68.2505 246.34 70.0195 246.703 71.6978C247.066 73.376 247.655 74.8729 248.472 76.1883C249.288 77.5037 250.332 78.5469 251.602 79.318C252.917 80.0891 254.527 80.4747 256.432 80.4747ZM289.912 90V41.693H311.684C313.952 41.693 316.038 42.1693 317.943 43.1218C319.894 44.0743 321.572 45.3217 322.978 46.8639C324.384 48.4061 325.473 50.1524 326.244 52.1028C327.061 54.0533 327.469 56.0264 327.469 58.0221C327.469 59.519 327.287 60.9704 326.924 62.3766C326.562 63.7373 326.04 65.03 325.36 66.2547C324.679 67.4794 323.84 68.5907 322.842 69.5886C321.89 70.5411 320.801 71.3576 319.576 72.038L330.19 90H317.603L308.35 74.4193H301.07V90H289.912ZM301.07 64.6899H311.276C312.591 64.6899 313.725 64.0775 314.678 62.8528C315.63 61.5828 316.106 59.9726 316.106 58.0221C316.106 56.0264 315.562 54.4388 314.473 53.2595C313.385 52.0801 312.206 51.4905 310.936 51.4905H301.07V64.6899ZM378.832 77.6171C378.832 79.7036 378.401 81.5179 377.539 83.0601C376.678 84.6023 375.498 85.895 374.001 86.9383C372.505 87.9362 370.758 88.7073 368.763 89.2516C366.767 89.7505 364.658 90 362.435 90H338.894V41.693H365.769C367.447 41.693 368.967 42.0559 370.327 42.7816C371.688 43.5074 372.845 44.4599 373.797 45.6392C374.75 46.7732 375.476 48.0886 375.975 49.5854C376.519 51.0369 376.791 52.5337 376.791 54.0759C376.791 56.3892 376.201 58.5664 375.022 60.6076C373.888 62.6487 372.164 64.1909 369.851 65.2342C372.618 66.0506 374.795 67.5021 376.383 69.5886C378.016 71.6751 378.832 74.3513 378.832 77.6171ZM367.47 75.3718C367.47 73.875 367.039 72.6049 366.177 71.5617C365.315 70.5184 364.227 69.9968 362.911 69.9968H350.052V80.5427H362.435C363.886 80.5427 365.088 80.0664 366.041 79.1139C366.994 78.1614 367.47 76.914 367.47 75.3718ZM350.052 51.2183V61.2199H361.006C362.231 61.2199 363.319 60.8117 364.272 59.9952C365.225 59.1788 365.701 57.9087 365.701 56.1851C365.701 54.5976 365.27 53.3729 364.408 52.5111C363.592 51.6492 362.594 51.2183 361.414 51.2183H350.052ZM430.377 41.693V90H419.219V70.2009H399.964V90H388.806V41.693H399.964V60.4035H419.219V41.693H430.377ZM443.037 90V41.693H454.195V90H443.037ZM189.59 138V113.847H193.4V138H189.59ZM217.297 120.99V138H213.487V113.847H216.481L230.293 131.264V113.881H234.137V138H230.973L217.297 120.99ZM254.194 138V113.847H270.285V117.214H258.004V124.426H268.278V127.59H258.004V138H254.194ZM298.027 138.17C296.303 138.17 294.727 137.83 293.298 137.15C291.892 136.446 290.679 135.528 289.658 134.394C288.638 133.237 287.844 131.922 287.277 130.448C286.733 128.974 286.461 127.465 286.461 125.923C286.461 124.313 286.755 122.771 287.345 121.297C287.935 119.823 288.74 118.518 289.76 117.384C290.804 116.251 292.028 115.355 293.434 114.697C294.863 114.017 296.417 113.676 298.095 113.676C299.819 113.676 301.384 114.039 302.79 114.765C304.218 115.468 305.432 116.398 306.43 117.555C307.45 118.711 308.233 120.027 308.777 121.501C309.344 122.952 309.627 124.438 309.627 125.957C309.627 127.568 309.333 129.11 308.743 130.584C308.176 132.058 307.371 133.362 306.328 134.496C305.284 135.607 304.048 136.503 302.62 137.184C301.213 137.841 299.683 138.17 298.027 138.17ZM290.339 125.923C290.339 127.057 290.52 128.157 290.883 129.223C291.246 130.289 291.756 131.23 292.414 132.047C293.094 132.863 293.911 133.521 294.863 134.02C295.816 134.496 296.882 134.734 298.061 134.734C299.286 134.734 300.363 134.485 301.293 133.986C302.245 133.464 303.05 132.784 303.708 131.945C304.366 131.105 304.865 130.164 305.205 129.121C305.545 128.078 305.715 127.012 305.715 125.923C305.715 124.767 305.534 123.667 305.171 122.623C304.808 121.557 304.287 120.628 303.606 119.834C302.948 119.017 302.143 118.371 301.191 117.895C300.261 117.396 299.218 117.146 298.061 117.146C296.836 117.146 295.748 117.407 294.795 117.929C293.843 118.428 293.038 119.085 292.38 119.902C291.722 120.718 291.212 121.66 290.849 122.725C290.509 123.769 290.339 124.835 290.339 125.923ZM344.795 117.214H336.766V138H332.922V117.214H324.86V113.847H344.795V117.214ZM379.229 134.632V138H362.662V113.847H378.923V117.214H366.472V124.086H377.256V127.25H366.472V134.632H379.229ZM395.759 125.753C395.759 124.302 396.019 122.862 396.541 121.433C397.063 119.981 397.822 118.689 398.82 117.555C399.841 116.398 401.077 115.468 402.528 114.765C403.98 114.062 405.624 113.71 407.461 113.71C409.661 113.71 411.543 114.198 413.108 115.173C414.673 116.148 415.852 117.419 416.646 118.983L413.653 120.99C413.312 120.265 412.904 119.652 412.428 119.153C411.952 118.655 411.43 118.258 410.863 117.963C410.296 117.668 409.706 117.464 409.094 117.35C408.482 117.214 407.892 117.146 407.325 117.146C406.055 117.146 404.944 117.407 403.991 117.929C403.039 118.428 402.234 119.097 401.576 119.936C400.941 120.775 400.453 121.716 400.113 122.759C399.795 123.803 399.637 124.846 399.637 125.889C399.637 127.069 399.83 128.191 400.215 129.257C400.601 130.323 401.134 131.264 401.814 132.081C402.517 132.897 403.345 133.555 404.297 134.054C405.25 134.53 406.293 134.768 407.427 134.768C408.017 134.768 408.618 134.7 409.23 134.564C409.865 134.405 410.466 134.167 411.033 133.85C411.623 133.509 412.156 133.09 412.632 132.591C413.131 132.092 413.539 131.491 413.857 130.788L417.02 132.591C416.635 133.498 416.091 134.303 415.388 135.006C414.684 135.687 413.891 136.265 413.006 136.741C412.122 137.218 411.181 137.58 410.183 137.83C409.207 138.079 408.244 138.204 407.291 138.204C405.59 138.204 404.037 137.841 402.63 137.116C401.224 136.39 400.011 135.449 398.99 134.292C397.97 133.113 397.176 131.786 396.609 130.312C396.042 128.815 395.759 127.295 395.759 125.753ZM455.006 113.847V138H451.162V127.352H438.983V138H435.173V113.847H438.983V123.95H451.162V113.847H455.006Z" fill="white"/>
<defs>
<linearGradient id="paint0_linear_483_6503" x1="19.2949" y1="124.086" x2="145.256" y2="82.491" gradientUnits="userSpaceOnUse">
<stop offset="0.348563" stop-color="#0274F9"/>
<stop offset="1" stop-color="#01F5FF"/>
</linearGradient>
<linearGradient id="paint1_linear_483_6503" x1="34.8632" y1="131.371" x2="105.381" y2="78.1359" gradientUnits="userSpaceOnUse">
<stop offset="0.0303351" stop-color="#28C7FF"/>
<stop offset="1" stop-color="#0274F9" stop-opacity="0"/>
</linearGradient>
<linearGradient id="paint2_linear_483_6503" x1="137.263" y1="85.9347" x2="84.322" y2="166.102" gradientUnits="userSpaceOnUse">
<stop offset="0.160238" stop-color="#F15F1E"/>
<stop offset="1" stop-color="#FF922B"/>
</linearGradient>
<linearGradient id="paint3_linear_483_6503" x1="137.263" y1="85.9347" x2="84.322" y2="166.102" gradientUnits="userSpaceOnUse">
<stop offset="0.160238" stop-color="#0274F9"/>
<stop offset="1" stop-color="#01F5FF"/>
</linearGradient>
<linearGradient id="paint4_linear_483_6503" x1="42.6353" y1="124.279" x2="47.4185" y2="90.9323" gradientUnits="userSpaceOnUse">
<stop offset="0.0303351" stop-color="#5F0195" stop-opacity="0.67"/>
<stop offset="0.815851" stop-color="#5F0195" stop-opacity="0"/>
</linearGradient>
<linearGradient id="paint5_linear_483_6503" x1="42.6431" y1="124.281" x2="47.4263" y2="90.9343" gradientUnits="userSpaceOnUse">
<stop offset="0.0303351" stop-color="#0076FF"/>
<stop offset="0.815851" stop-color="#0076FF" stop-opacity="0"/>
</linearGradient>
</defs>
</svg>
