<svg width="205" height="71" viewBox="0 0 205 71" fill="none" xmlns="http://www.w3.org/2000/svg">
<path d="M26.0895 30.6476L7.5625 49.1746C15.125 53.8726 23.2222 49.9862 26.3255 47.4558L37.5474 36.2339C38.9117 34.8696 40.7786 33.6105 42.5732 34.3188C43.6319 34.7367 44.2216 35.5585 44.5154 36.4694C45.0859 38.2383 43.9553 39.9952 42.6411 41.3094L26.6119 57.3386L28.3307 59.0574L35.0624 52.3256L36.6379 53.9011L32.0546 58.4845L34.0598 60.4897L43.3697 51.1798L44.9452 52.7553L32.7708 64.9298L34.6327 66.6485L44.6587 56.4793L54.1118 46.1668C60.0701 37.8022 55.2577 29.409 52.1066 26.258C47.8576 21.9426 42.9225 21.3297 38.7892 22.1069C33.6686 23.0698 29.7739 26.9633 26.0895 30.6476Z" fill="url(#paint0_linear_443_1010)"/>
<path d="M31.6249 25.1124L7.5625 49.1749C15.125 53.8728 23.2053 49.9888 26.3086 47.4584L37.5482 36.231C38.912 34.8687 40.777 33.6117 42.5706 34.318C43.631 34.7356 44.2214 35.558 44.5154 36.4697C45.0859 38.2385 43.9553 39.9955 42.6411 41.3096L26.6119 57.3389L28.3307 59.0576L35.0624 52.3259L36.6379 53.9014L32.0546 58.4847L34.0598 60.4899L43.3697 51.18L44.9452 52.7555L32.7708 64.93L34.6327 66.6487L44.6587 56.4795L54.1118 46.167C60.0701 37.8025 55.2577 29.4093 52.1066 26.2583C44.7733 18.8104 35.433 21.4271 31.6249 25.1124Z" fill="url(#paint1_linear_443_1010)"/>
<path d="M34.6321 66.6488L32.7702 64.93L44.9446 52.7556L43.3691 51.1801L34.0592 60.4899L32.054 58.4847L36.6373 53.9014L35.0618 52.3259L28.3301 59.0576L26.6113 57.3389L42.6405 41.3097C43.9547 39.9955 45.033 38.233 44.4225 36.4776C43.8546 34.8445 42.4458 33.4845 39.6438 34.2879C40.1088 33.98 40.6093 33.6852 41.137 33.4102C43.6875 32.0501 46.106 31.4695 48.2514 31.4764C50.5212 31.4321 52.7092 32.0189 54.3942 33.5702C55.7578 34.715 56.6579 36.2471 56.9403 37.956C56.8932 40.5645 56.1055 43.3674 54.1112 46.1671L44.6581 56.4795L34.6321 66.6488Z" fill="url(#paint2_linear_443_1010)"/>
<path d="M34.6321 66.6488L32.7702 64.93L44.9446 52.7556L43.3691 51.1801L34.0592 60.4899L32.054 58.4847L36.6373 53.9014L35.0618 52.3259L28.3301 59.0576L26.6113 57.3389L42.6405 41.3097C43.9547 39.9955 45.033 38.233 44.4225 36.4776C43.8546 34.8445 42.4458 33.4845 39.6438 34.2879C40.1088 33.98 40.6093 33.6852 41.137 33.4102C43.6875 32.0501 46.106 31.4695 48.2514 31.4764C50.5212 31.4321 52.7092 32.0189 54.3942 33.5702C55.7578 34.715 56.6579 36.2471 56.9403 37.956C56.8932 40.5645 56.1055 43.3674 54.1112 46.1671L44.6581 56.4795L34.6321 66.6488Z" fill="url(#paint3_linear_443_1010)"/>
<path d="M33.2641 40.5377L28.6634 45.1384C21.6679 49.7863 13.8142 47.6577 10.7475 46.0062L24.74 32.0137L33.2641 40.5377Z" fill="url(#paint4_linear_443_1010)"/>
<path d="M33.266 40.5375L28.6654 45.1381C21.6698 49.786 13.8161 47.6574 10.7494 46.0059L24.742 32.0134L33.266 40.5375Z" fill="url(#paint5_linear_443_1010)"/>
<path d="M38.1255 50.5134L39.4642 50.896L38.5057 51.8545L37.1671 51.4718L38.1255 50.5134Z" fill="#0274F9"/>
<path d="M38.1268 50.5136L37.7441 49.175L36.7857 50.1335L37.1684 51.4721L38.1268 50.5136Z" fill="#00B3FE"/>
<path d="M39.0819 49.559L39.4658 50.896L38.1277 50.5132L37.7442 49.1743L39.0819 49.559Z" fill="#01F5FF"/>
<path d="M46.4341 49.3676L47.7728 49.7502L46.8143 50.7087L45.4757 50.326L46.4341 49.3676Z" fill="#0274F9"/>
<path d="M46.4354 49.3678L46.0527 48.0292L45.0943 48.9876L45.477 50.3262L46.4354 49.3678Z" fill="#00B3FE"/>
<path d="M47.3905 48.4132L47.7744 49.7501L46.4363 49.3674L46.0527 48.0285L47.3905 48.4132Z" fill="#01F5FF"/>
<path d="M28.2924 8.86566L34.8088 10.6738L30.0882 15.3944L23.5718 13.5863L28.2924 8.86566Z" fill="#0274F9"/>
<path d="M28.2925 8.86538L26.4844 2.34897L21.7638 7.06957L23.5719 13.586L28.2925 8.86538Z" fill="#00B3FE"/>
<path d="M32.9951 4.165L34.8092 10.6734L28.2952 8.86491L26.4829 2.34714L32.9951 4.165Z" fill="#01F5FF"/>
<path d="M24.3755 61.1121L25.7142 61.4948L24.7557 62.4532L23.4171 62.0705L24.3755 61.1121Z" fill="#0274F9"/>
<path d="M24.3768 61.1123L23.9941 59.7737L23.0357 60.7322L23.4184 62.0708L24.3768 61.1123Z" fill="#00B3FE"/>
<path d="M25.3319 60.1577L25.7158 61.4947L24.3777 61.1119L23.9942 59.773L25.3319 60.1577Z" fill="#01F5FF"/>
<path d="M30.106 62.258L31.4446 62.6407L30.4862 63.5991L29.1476 63.2164L30.106 62.258Z" fill="#0274F9"/>
<path d="M30.1073 62.2582L29.7246 60.9196L28.7662 61.878L29.1488 63.2167L30.1073 62.2582Z" fill="#00B3FE"/>
<path d="M31.0624 61.3036L31.4463 62.6406L30.1081 62.2578L29.7246 60.9189L31.0624 61.3036Z" fill="#01F5FF"/>
<path d="M31.2525 68.274L32.5911 68.6566L31.6327 69.6151L30.2941 69.2324L31.2525 68.274Z" fill="#0274F9"/>
<path d="M31.2538 68.2742L30.8711 66.9356L29.9126 67.8941L30.2953 69.2327L31.2538 68.2742Z" fill="#00B3FE"/>
<path d="M32.2089 67.3196L32.5928 68.6566L31.2546 68.2738L30.8711 66.9349L32.2089 67.3196Z" fill="#01F5FF"/>
<path d="M26.9576 65.4094L28.2962 65.7921L27.3377 66.7505L25.9991 66.3678L26.9576 65.4094Z" fill="#0274F9"/>
<path d="M26.9569 65.4096L26.5742 64.071L25.6158 65.0295L25.9985 66.3681L26.9569 65.4096Z" fill="#00B3FE"/>
<path d="M27.912 64.455L28.2959 65.792L26.9577 65.4093L26.5742 64.0704L27.912 64.455Z" fill="#01F5FF"/>
<path d="M23.5162 68.8469L24.8548 69.2295L23.8963 70.188L22.5577 69.8053L23.5162 68.8469Z" fill="#0274F9"/>
<path d="M23.5174 68.8471L23.1348 67.5085L22.1763 68.467L22.559 69.8056L23.5174 68.8471Z" fill="#00B3FE"/>
<path d="M24.4725 67.8925L24.8564 69.2295L23.5183 68.8467L23.1348 67.5078L24.4725 67.8925Z" fill="#01F5FF"/>
<path d="M24.4174 21.0545L22.6986 14.4659L0.213196 34.2315C-0.502791 37.669 1.11885 42.0613 1.93048 43.5414L24.4174 21.0545Z" fill="#0274F9"/>
<path d="M0.0690103 36.9531L22.6994 14.4662L16.1107 12.7474L4.93901 24.0625C0.498783 28.0729 -0.26519 34.9479 0.0690103 36.9531Z" fill="#00B3FE"/>
<path d="M22.6998 14.4662L16.1113 12.7475L17.8301 19.1928L24.4186 21.0547L22.6998 14.4662Z" fill="#01F5FF"/>
<path d="M4.94045 40.3906C-0.21578 35.2344 1.74168 28.5026 3.36494 25.7813C-1.90585 34.0313 0.213894 41.059 1.93261 43.5416L4.94045 40.3906Z" fill="#28C7FF"/>
<path d="M90.1105 19.1937C90.0455 19.1071 89.8182 18.9447 89.4286 18.7066C89.0389 18.4685 88.5518 18.2195 87.9674 17.9597C87.3829 17.7 86.7443 17.4727 86.0515 17.2778C85.3588 17.083 84.6661 16.9856 83.9734 16.9856C82.0684 16.9856 81.1159 17.6242 81.1159 18.9014C81.1159 19.2911 81.2133 19.6158 81.4081 19.8756C81.6246 20.1353 81.9276 20.3735 82.3173 20.5899C82.7286 20.7848 83.2373 20.9688 83.8435 21.142C84.4496 21.3151 85.1532 21.51 85.9541 21.7264C87.0582 22.0295 88.0539 22.3651 88.9415 22.7331C89.8291 23.0794 90.5759 23.5232 91.182 24.0644C91.8098 24.5839 92.2861 25.2226 92.6108 25.9802C92.9572 26.7379 93.1303 27.6471 93.1303 28.7078C93.1303 30.0067 92.8814 31.1107 92.3835 32.0199C91.9072 32.9075 91.2686 33.6327 90.4677 34.1955C89.6667 34.7367 88.7467 35.1372 87.7076 35.397C86.6685 35.6351 85.5969 35.7542 84.4929 35.7542C83.6486 35.7542 82.7827 35.6892 81.8952 35.5593C81.0076 35.4294 80.1417 35.2454 79.2975 35.0073C78.4532 34.7475 77.6306 34.4445 76.8296 34.0981C76.0503 33.7517 75.3251 33.3513 74.654 32.8967L76.992 28.2532C77.0786 28.3615 77.36 28.5671 77.8362 28.8702C78.3125 29.1733 78.897 29.4763 79.5897 29.7794C80.3041 30.0825 81.0942 30.3531 81.9601 30.5912C82.826 30.8293 83.7028 30.9484 84.5903 30.9484C86.4737 30.9484 87.4153 30.3747 87.4153 29.2274C87.4153 28.7944 87.2746 28.4372 86.9932 28.1558C86.7118 27.8744 86.3221 27.6254 85.8242 27.409C85.3263 27.1708 84.731 26.9544 84.0383 26.7595C83.3672 26.5647 82.6312 26.3482 81.8302 26.1101C80.7695 25.7854 79.8495 25.439 79.0702 25.071C78.2908 24.6814 77.6414 24.2376 77.1219 23.7397C76.624 23.2418 76.2451 22.6681 75.9854 22.0187C75.7472 21.3693 75.6282 20.6116 75.6282 19.7457C75.6282 18.5334 75.8555 17.4618 76.3101 16.531C76.7647 15.6001 77.3816 14.8208 78.1609 14.193C78.9403 13.5436 79.8386 13.0565 80.8561 12.7318C81.8952 12.4071 82.9884 12.2448 84.1357 12.2448C84.9367 12.2448 85.7268 12.3205 86.5061 12.4721C87.2855 12.6236 88.0323 12.8184 88.7467 13.0565C89.461 13.2947 90.1213 13.5653 90.7274 13.8683C91.3552 14.1714 91.9289 14.4745 92.4484 14.7775L90.1105 19.1937ZM107.783 30.9484C108.692 30.9484 109.46 30.7644 110.088 30.3964C110.716 30.0067 111.225 29.498 111.614 28.8702C112.004 28.2424 112.275 27.528 112.426 26.7271C112.599 25.9045 112.686 25.071 112.686 24.2268V12.4396H118.011V24.2268C118.011 25.8287 117.805 27.3224 117.394 28.7078C117.005 30.0933 116.388 31.3056 115.543 32.3446C114.721 33.3837 113.66 34.2063 112.361 34.8125C111.084 35.397 109.558 35.6892 107.783 35.6892C105.943 35.6892 104.373 35.3753 103.074 34.7475C101.775 34.1198 100.715 33.2863 99.892 32.2472C99.0911 31.1865 98.4957 29.9634 98.1061 28.5779C97.7381 27.1925 97.5541 25.7421 97.5541 24.2268V12.4396H102.879V24.2268C102.879 25.1143 102.966 25.9586 103.139 26.7595C103.312 27.5605 103.594 28.2749 103.983 28.9027C104.373 29.5304 104.871 30.0283 105.477 30.3964C106.105 30.7644 106.873 30.9484 107.783 30.9484ZM123.761 35.4944V12.4396H134.152C135.234 12.4396 136.23 12.6669 137.139 13.1215C138.07 13.5761 138.871 14.1714 139.542 14.9074C140.213 15.6434 140.733 16.4769 141.101 17.4077C141.49 18.3386 141.685 19.2803 141.685 20.2328C141.685 20.9471 141.599 21.6399 141.425 22.3109C141.252 22.9604 141.003 23.5773 140.679 24.1618C140.354 24.7463 139.953 25.2767 139.477 25.7529C139.023 26.2075 138.503 26.5972 137.918 26.9219L142.984 35.4944H136.977L132.561 28.0584H129.086V35.4944H123.761ZM129.086 23.415H133.957C134.585 23.415 135.126 23.1227 135.581 22.5382C136.035 21.9321 136.262 21.1636 136.262 20.2328C136.262 19.2803 136.003 18.5226 135.483 17.9597C134.964 17.3969 134.401 17.1155 133.795 17.1155H129.086V23.415ZM166.199 29.5846C166.199 30.5804 165.993 31.4463 165.582 32.1823C165.17 32.9183 164.608 33.5353 163.893 34.0332C163.179 34.5094 162.345 34.8774 161.393 35.1372C160.44 35.3753 159.434 35.4944 158.373 35.4944H147.138V12.4396H159.964C160.765 12.4396 161.49 12.6128 162.14 12.9591C162.789 13.3055 163.341 13.7601 163.796 14.3229C164.25 14.8641 164.597 15.4919 164.835 16.2063C165.095 16.899 165.225 17.6134 165.225 18.3494C165.225 19.4534 164.943 20.4925 164.38 21.4667C163.839 22.4408 163.016 23.1768 161.912 23.6747C163.233 24.0644 164.272 24.7571 165.03 25.7529C165.809 26.7487 166.199 28.0259 166.199 29.5846ZM160.776 28.513C160.776 27.7986 160.57 27.1925 160.159 26.6946C159.748 26.1967 159.228 25.9477 158.6 25.9477H152.463V30.9808H158.373C159.066 30.9808 159.639 30.7535 160.094 30.2989C160.549 29.8443 160.776 29.249 160.776 28.513ZM152.463 16.9856V21.7589H157.691C158.276 21.7589 158.795 21.5641 159.25 21.1744C159.704 20.7848 159.932 20.1786 159.932 19.356C159.932 18.5984 159.726 18.0139 159.315 17.6026C158.925 17.1913 158.449 16.9856 157.886 16.9856H152.463ZM190.799 12.4396V35.4944H185.474V26.0452H176.284V35.4944H170.959V12.4396H176.284V21.3693H185.474V12.4396H190.799ZM196.841 35.4944V12.4396H202.166V35.4944H196.841ZM75.8818 58.4944V46.967H77.7002V58.4944H75.8818ZM89.1052 50.3765V58.4944H87.2868V46.967H88.7155L95.3073 55.2797V46.9832H97.1419V58.4944H95.632L89.1052 50.3765ZM106.715 58.4944V46.967H114.394V48.5743H108.533V52.0163H113.436V53.5262H108.533V58.4944H106.715ZM127.634 58.5756C126.811 58.5756 126.059 58.4132 125.377 58.0885C124.706 57.753 124.127 57.3146 123.64 56.7734C123.153 56.2214 122.774 55.5936 122.503 54.89C122.244 54.1865 122.114 53.4667 122.114 52.7307C122.114 51.9622 122.254 51.2262 122.536 50.5226C122.817 49.8191 123.202 49.1967 123.689 48.6555C124.187 48.1143 124.771 47.6868 125.442 47.3729C126.124 47.0482 126.865 46.8858 127.666 46.8858C128.489 46.8858 129.236 47.059 129.907 47.4053C130.589 47.7409 131.168 48.1847 131.644 48.7367C132.131 49.2887 132.505 49.9165 132.764 50.62C133.035 51.3128 133.17 52.0217 133.17 52.7469C133.17 53.5154 133.03 54.2514 132.748 54.955C132.478 55.6585 132.093 56.2809 131.595 56.8221C131.098 57.3525 130.508 57.78 129.826 58.1047C129.155 58.4186 128.424 58.5756 127.634 58.5756ZM123.965 52.7307C123.965 53.2719 124.051 53.7968 124.224 54.3056C124.398 54.8143 124.641 55.2635 124.955 55.6531C125.28 56.0428 125.669 56.3567 126.124 56.5948C126.579 56.8221 127.087 56.9358 127.65 56.9358C128.235 56.9358 128.749 56.8167 129.193 56.5786C129.647 56.3296 130.031 56.0049 130.345 55.6044C130.659 55.2039 130.897 54.7547 131.06 54.2568C131.222 53.759 131.303 53.2502 131.303 52.7307C131.303 52.1787 131.217 51.6537 131.043 51.1558C130.87 50.6471 130.621 50.2033 130.297 49.8245C129.983 49.4348 129.598 49.1263 129.144 48.899C128.7 48.6609 128.202 48.5419 127.65 48.5419C127.066 48.5419 126.546 48.6663 126.092 48.9153C125.637 49.1534 125.253 49.4673 124.939 49.857C124.625 50.2466 124.381 50.6958 124.208 51.2045C124.046 51.7024 123.965 52.2111 123.965 52.7307ZM149.954 48.5743H146.122V58.4944H144.288V48.5743H140.44V46.967H149.954V48.5743ZM166.388 56.887V58.4944H158.481V46.967H166.242V48.5743H160.3V51.854H165.446V53.3639H160.3V56.887H166.388ZM174.277 52.6495C174.277 51.9568 174.401 51.2695 174.65 50.5876C174.899 49.8948 175.262 49.2779 175.738 48.7367C176.225 48.1847 176.815 47.7409 177.508 47.4053C178.201 47.0698 178.985 46.902 179.862 46.902C180.912 46.902 181.81 47.1348 182.557 47.6002C183.304 48.0656 183.867 48.6717 184.246 49.4186L182.817 50.3765C182.655 50.0301 182.46 49.7379 182.232 49.4998C182.005 49.2616 181.756 49.0722 181.486 48.9315C181.215 48.7908 180.934 48.6934 180.641 48.6393C180.349 48.5743 180.068 48.5419 179.797 48.5419C179.191 48.5419 178.661 48.6663 178.206 48.9153C177.751 49.1534 177.367 49.4727 177.053 49.8732C176.75 50.2737 176.517 50.7229 176.355 51.2208C176.204 51.7187 176.128 52.2166 176.128 52.7144C176.128 53.2773 176.22 53.8131 176.404 54.3218C176.588 54.8305 176.842 55.2797 177.167 55.6694C177.502 56.059 177.898 56.3729 178.352 56.611C178.807 56.8383 179.305 56.952 179.846 56.952C180.127 56.952 180.414 56.9195 180.706 56.8546C181.009 56.7788 181.296 56.6652 181.567 56.5136C181.848 56.3513 182.103 56.151 182.33 55.9129C182.568 55.6748 182.763 55.3879 182.914 55.0524L184.424 55.9129C184.24 56.3459 183.981 56.7301 183.645 57.0656C183.309 57.3904 182.931 57.6664 182.508 57.8937C182.086 58.121 181.637 58.2941 181.161 58.4132C180.695 58.5323 180.235 58.5918 179.781 58.5918C178.969 58.5918 178.228 58.4186 177.557 58.0723C176.885 57.7259 176.306 57.2767 175.819 56.7247C175.332 56.1618 174.953 55.5286 174.683 54.8251C174.412 54.1107 174.277 53.3855 174.277 52.6495ZM202.553 46.967V58.4944H200.718V53.4126H194.906V58.4944H193.088V46.967H194.906V51.789H200.718V46.967H202.553Z" fill="white"/>
<defs>
<linearGradient id="paint0_linear_443_1010" x1="7.5625" y1="48.7157" x2="56.9431" y2="32.4383" gradientUnits="userSpaceOnUse">
<stop offset="0.348563" stop-color="#0274F9"/>
<stop offset="1" stop-color="#01F5FF"/>
</linearGradient>
<linearGradient id="paint1_linear_443_1010" x1="13.6636" y1="51.5766" x2="41.3347" y2="30.7241" gradientUnits="userSpaceOnUse">
<stop offset="0.0303351" stop-color="#28C7FF"/>
<stop offset="1" stop-color="#0274F9" stop-opacity="0"/>
</linearGradient>
<linearGradient id="paint2_linear_443_1010" x1="53.7932" y1="33.7385" x2="32.9945" y2="65.1775" gradientUnits="userSpaceOnUse">
<stop offset="0.160238" stop-color="#F15F1E"/>
<stop offset="1" stop-color="#FF922B"/>
</linearGradient>
<linearGradient id="paint3_linear_443_1010" x1="53.7932" y1="33.7385" x2="32.9945" y2="65.1775" gradientUnits="userSpaceOnUse">
<stop offset="0.160238" stop-color="#0274F9"/>
<stop offset="1" stop-color="#01F5FF"/>
</linearGradient>
<linearGradient id="paint4_linear_443_1010" x1="16.7094" y1="48.7918" x2="18.5905" y2="35.7012" gradientUnits="userSpaceOnUse">
<stop offset="0.0303351" stop-color="#5F0195" stop-opacity="0.67"/>
<stop offset="0.815851" stop-color="#5F0195" stop-opacity="0"/>
</linearGradient>
<linearGradient id="paint5_linear_443_1010" x1="16.7114" y1="48.7915" x2="18.5925" y2="35.701" gradientUnits="userSpaceOnUse">
<stop offset="0.0303351" stop-color="#0076FF"/>
<stop offset="0.815851" stop-color="#0076FF" stop-opacity="0"/>
</linearGradient>
</defs>
</svg>
