<svg width="60" height="56" viewBox="0 0 60 56" fill="none" xmlns="http://www.w3.org/2000/svg">
<path fill-rule="evenodd" clip-rule="evenodd" d="M38.7252 0.287695L38.4375 0.575274V5.625V10.6747L38.7252 10.9623L39.0128 11.25H44.0625H49.1122L49.3998 10.9623L49.6875 10.6747V5.625V0.575274L49.3998 0.287695L49.1122 0H44.0625H39.0128L38.7252 0.287695ZM9.49219 2.0509C4.41785 3.07641 1.13742 7.84816 2.04059 12.8906C2.38957 14.8389 3.34793 16.5921 4.83703 18.0067C5.86066 18.9791 6.82324 19.5854 8.05535 20.0341C12.1751 21.5345 16.6884 20.016 19.1145 16.3133C20.1468 14.7377 20.5612 13.2873 20.5612 11.25C20.5612 9.21094 20.1461 7.75922 19.113 6.18668C17.0071 2.98066 13.1329 1.3152 9.49219 2.0509ZM47.8125 5.625V9.375H44.0625H40.3125V5.625V1.875H44.0625H47.8125V5.625ZM12.1205 3.85359C12.1557 3.91055 12.0252 4.02316 11.8304 4.10379C11.0441 4.42957 10.3125 5.61457 10.3125 6.5625C10.3125 7.6459 11.2526 8.93496 12.2597 9.2325C12.581 9.32742 13.7031 9.375 15.6205 9.375H18.499L18.6394 10.0488C18.822 10.9246 18.7162 12.4962 18.409 13.4766C17.7067 15.7174 15.7174 17.7067 13.4766 18.409C12.3632 18.758 10.9054 18.8272 9.80859 18.5832L8.91422 18.3843L9.33902 18.0114C9.57258 17.8063 9.88664 17.3743 10.037 17.0516C10.5251 16.0034 10.35 14.9762 9.52723 14.0611C8.7866 13.2373 8.35934 13.125 5.96543 13.125H4.00383L3.87691 12.5333C3.56707 11.0884 3.82852 9.38109 4.59398 7.85156C5.55129 5.93883 7.55965 4.3691 9.60938 3.93129C10.4761 3.74625 12.0245 3.69832 12.1205 3.85359ZM30.2877 4.0377C30.0023 4.32293 30 4.34344 30 6.5625C30 9.57469 29.8003 9.375 32.8125 9.375C35.0316 9.375 35.0521 9.37266 35.3373 9.0873C35.6227 8.80207 35.625 8.78156 35.625 6.5625C35.625 3.55031 35.8247 3.75 32.8125 3.75C30.5934 3.75 30.5729 3.75234 30.2877 4.0377ZM16.7791 6.20602C17.0586 6.52559 17.3822 6.94746 17.498 7.14352L17.7086 7.5H15.2357C12.7664 7.5 12.7624 7.49953 12.4752 7.2123C12.2938 7.03102 12.1875 6.79078 12.1875 6.5625C12.1875 6.33422 12.2938 6.09398 12.4752 5.9127C12.7549 5.63285 12.8107 5.625 14.5168 5.625H16.2709L16.7791 6.20602ZM33.75 6.5625V7.5H32.8125H31.875V6.5625V5.625H32.8125H33.75V6.5625ZM46.2252 13.4127L45.9375 13.7003V16.4062V19.1122L46.2252 19.3998L46.5128 19.6875H49.2188H51.9247L52.2123 19.3998L52.5 19.1122V16.4062V13.7003L52.2123 13.4127L51.9247 13.125H49.2188H46.5128L46.2252 13.4127ZM8.1498 15.2877C8.33121 15.469 8.4375 15.7092 8.4375 15.9375C8.4375 16.1658 8.33121 16.406 8.1498 16.5873C7.89949 16.8377 7.75641 16.875 7.04566 16.875H6.2291L5.72086 16.294C5.44137 15.9744 5.11781 15.5525 5.00203 15.3565L4.79145 15H6.32684C7.8007 15 7.87371 15.0115 8.1498 15.2877ZM26.3672 15.1759C21.9088 16.077 18.75 19.9202 18.75 24.4439C18.75 25.1493 18.7159 25.3125 18.5689 25.3125C18.4693 25.3125 18.2584 25.442 18.1002 25.6002L17.8125 25.8878V29.0625V32.2372L18.1002 32.5248C18.2584 32.683 18.4586 32.8125 18.5452 32.8125C18.6579 32.8125 18.7409 33.1535 18.8374 34.0137C18.9986 35.4478 19.3146 36.5259 19.9452 37.793C20.802 39.514 22.1783 41.0937 23.7035 42.1058L24.375 42.5516V43.7627V44.9739L22.2949 45.0264C20.0477 45.083 19.4025 45.2298 18.1346 45.9728C17.2218 46.5079 16.2018 47.6466 15.7012 48.6895C15.1188 49.9034 15 50.6132 15 52.8784C15 54.6957 15.0064 54.7437 15.2877 55.0248C15.6367 55.3739 16.1544 55.4004 16.5397 55.0888C16.8087 54.8714 16.818 54.803 16.875 52.6511L16.9336 50.4369L17.3713 49.5514C17.8984 48.4849 18.577 47.8206 19.6664 47.3045C20.4456 46.9354 20.4594 46.9334 22.6518 46.8933L24.8543 46.8529L25.8424 47.8015C26.4749 48.4086 26.9244 48.75 27.0915 48.75C27.2352 48.75 27.9484 48.5539 28.6764 48.3144L30 47.8787L31.3236 48.3144C32.0516 48.5539 32.77 48.75 32.92 48.75C33.103 48.75 33.5125 48.4379 34.1646 47.8014L35.1364 46.8527L37.3437 46.8932C39.5412 46.9334 39.5542 46.9352 40.3336 47.3045C41.423 47.8206 42.1016 48.4849 42.6287 49.5514L43.0664 50.4369L43.125 52.6511C43.182 54.803 43.1913 54.8714 43.4603 55.0888C43.8511 55.4048 44.3632 55.374 44.7246 55.0125L45.0246 54.7126L44.9715 52.4637C44.9134 50.0064 44.8118 49.5323 44.0623 48.2223C43.6304 47.4676 42.5768 46.3897 41.8604 45.9698C40.5979 45.23 39.9504 45.083 37.7051 45.0264L35.625 44.9739V43.7795V42.5852L36.3184 42.0962C37.9518 40.9443 39.204 39.502 40.0548 37.793C40.6854 36.5259 41.0014 35.4478 41.1626 34.0137C41.2591 33.1535 41.3421 32.8125 41.4548 32.8125C41.5414 32.8125 41.7416 32.683 41.8998 32.5248L42.1875 32.2372V29.0625V25.8878L41.8998 25.6002C41.7416 25.442 41.5307 25.3125 41.4311 25.3125C41.2855 25.3125 41.25 25.1564 41.25 24.5168C41.25 22.9657 40.7053 21.6054 39.635 20.4833C38.9626 19.7783 37.7425 19.0624 36.9645 18.9165L36.5625 18.8411V17.2082C36.5625 15.6307 36.5528 15.5655 36.2748 15.2877L35.9872 15L31.558 15.011C28.4047 15.0189 26.9095 15.0663 26.3672 15.1759ZM50.625 16.4062V17.8125H49.2188H47.8125V16.4062V15H49.2188H50.625V16.4062ZM34.6875 18.4623C34.6875 19.9605 34.7026 20.0648 34.9559 20.3181C35.154 20.5162 35.4178 20.6067 35.9638 20.6638C36.8205 20.7533 37.9342 21.2898 38.3914 21.8331C38.9911 22.5457 39.2832 23.3122 39.3475 24.3411C39.4116 25.3689 39.2886 25.6012 39.0218 24.957C38.8218 24.4741 37.9671 23.7436 37.4054 23.5753C36.7537 23.3801 23.2463 23.3801 22.5946 23.5753C22.0329 23.7436 21.1782 24.4741 20.9782 24.957C20.74 25.5321 20.6249 25.3702 20.627 24.4629C20.6313 22.6718 21.3322 20.7588 22.4541 19.4763C23.0849 18.7553 24.1999 17.9333 25.117 17.5134C26.3186 16.9634 26.9606 16.8943 30.9668 16.8843L34.6875 16.875V18.4623ZM37.2123 25.6002L37.5 25.8878V29.0625V32.2372L37.2123 32.5248L36.9247 32.8125H30H23.0753L22.7877 32.5248L22.5 32.2372V29.0625V25.8878L22.7877 25.6002L23.0753 25.3125H30H36.9247L37.2123 25.6002ZM44.3502 25.6002L44.0625 25.8878V32.8125V39.7372L44.3502 40.0248L44.6378 40.3125H52.0312H59.4247L59.7123 40.0248L60 39.7372V32.8125V25.8878L59.7123 25.6002L59.4247 25.3125H52.0312H44.6378L44.3502 25.6002ZM0.287695 27.4752L0 27.7628V33.75V39.7372L0.287695 40.0248L0.575273 40.3125H7.89527C11.9213 40.3125 15.3006 40.2797 15.4049 40.2397C15.9198 40.0421 15.9375 39.823 15.9375 33.6333V27.7628L15.6498 27.4752L15.3622 27.1875H7.96875H0.575273L0.287695 27.4752ZM20.625 29.0625V30.9375H20.1562H19.6875V29.0625V27.1875H20.1562H20.625V29.0625ZM40.3125 29.0625V30.9375H39.8438H39.375V29.0625V27.1875H39.8438H40.3125V29.0625ZM58.125 27.6562V28.125H52.0312H45.9375V27.6562V27.1875H52.0312H58.125V27.6562ZM24.6627 28.4127C24.4813 28.594 24.375 28.8342 24.375 29.0625C24.375 29.2908 24.4813 29.531 24.6627 29.7123L24.9503 30H30H35.0497L35.3373 29.7123C35.5187 29.531 35.625 29.2908 35.625 29.0625C35.625 28.8342 35.5187 28.594 35.3373 28.4127L35.0497 28.125H30H24.9503L24.6627 28.4127ZM14.0625 32.6654V36.2682L12.9496 34.6012C11.3237 32.1662 11.1728 32.1675 9.53109 34.6315C8.90941 35.5646 8.36543 36.3281 8.3223 36.3281C8.27906 36.3281 8.01047 36.0056 7.72535 35.6114C7.44035 35.2172 7.07918 34.8459 6.92297 34.7863C6.29156 34.5452 6.06023 34.7316 4.63641 36.6285L3.27855 38.4375H2.57672H1.875V33.75V29.0625H7.96875H14.0625V32.6654ZM58.125 34.2188V38.4375H52.0312H45.9375V34.2188V30H52.0312H58.125V34.2188ZM4.13285 31.1679C3.79242 31.485 3.70383 31.8322 3.86449 32.22C4.11773 32.8312 4.8743 32.9879 5.3373 32.5248C6.15047 31.7116 4.97297 30.3852 4.13285 31.1679ZM48.2385 32.1179C47.8023 32.4609 47.8023 33.1641 48.2385 33.5071C48.5354 33.7407 48.6831 33.75 52.1109 33.75H55.6747L55.9623 33.4623C56.1437 33.281 56.25 33.0408 56.25 32.8125C56.25 32.5842 56.1437 32.344 55.9623 32.1627L55.6747 31.875H52.1109C48.6831 31.875 48.5354 31.8843 48.2385 32.1179ZM20.9782 33.168C21.1782 33.6509 22.0329 34.3814 22.5946 34.5497C23.2463 34.7449 36.7537 34.7449 37.4054 34.5497C37.9671 34.3814 38.8218 33.6509 39.0218 33.168C39.2764 32.5533 39.4148 32.7459 39.3348 33.6035C39.0636 36.5078 37.5168 39.0695 35.0633 40.677C31.4411 43.0502 26.5507 42.5442 23.4464 39.4748C21.8327 37.8791 20.8758 35.859 20.6652 33.6035C20.5852 32.7459 20.7236 32.5533 20.9782 33.168ZM48.2385 34.9304C47.8023 35.2734 47.8023 35.9766 48.2385 36.3196C48.5255 36.5454 48.6995 36.5625 50.7047 36.5625C52.8391 36.5625 52.8653 36.5595 53.1498 36.2748C53.3312 36.0935 53.4375 35.8533 53.4375 35.625C53.4375 35.3967 53.3312 35.1565 53.1498 34.9752C52.8653 34.6905 52.8391 34.6875 50.7047 34.6875C48.6995 34.6875 48.5255 34.7046 48.2385 34.9304ZM12.2759 36.9756L13.2431 38.4375H11.25H9.25688L10.2241 36.9756C10.7562 36.1716 11.2178 35.5137 11.25 35.5137C11.2822 35.5137 11.7438 36.1716 12.2759 36.9756ZM6.89953 37.6227C7.32738 38.2014 7.20797 38.3732 6.34969 38.4139L5.61188 38.449L6.05356 37.8573C6.2966 37.5319 6.52688 37.2656 6.56543 37.2656C6.6041 37.2656 6.75434 37.4263 6.89953 37.6227ZM27.3437 43.7332C28.1203 43.9413 28.6212 43.9897 30 43.9897C31.3788 43.9897 31.8797 43.9413 32.6563 43.7332C33.1826 43.592 33.6441 43.4766 33.6817 43.4766C33.7192 43.4766 33.75 43.9363 33.75 44.4983V45.52L33.1527 46.1248L32.5554 46.7297L31.2777 46.3076L30 45.8853L28.7223 46.3076L27.4446 46.7297L26.8473 46.1248L26.25 45.52V44.4983C26.25 43.9363 26.2808 43.4766 26.3183 43.4766C26.3559 43.4766 26.8174 43.592 27.3437 43.7332Z" fill="white"/>
</svg>
